<?xml version="1.0" encoding="utf-8"?>
<!-- Generator: Adobe Illustrator 16.0.4, SVG Export Plug-In . SVG Version: 6.00 Build 0)  -->
<!DOCTYPE svg PUBLIC "-//W3C//DTD SVG 1.1//EN" "http://www.w3.org/Graphics/SVG/1.1/DTD/svg11.dtd">
<svg version="1.1" id="Ebene_1" xmlns="http://www.w3.org/2000/svg" xmlns:xlink="http://www.w3.org/1999/xlink" x="0px" y="0px"
	 width="595.3px" height="595.3px" viewBox="0 0 595.3 595.3" enable-background="new 0 0 595.3 595.3" xml:space="preserve">

<polygon fill="none" points="281.7,270.2 240.1,276.2 242.4,282.1 281.7,353.6 "/>
<polygon fill="none" points="281.7,267.4 281.7,267.4 281.9,267.4 295.7,267.4 286.4,235.2 282.7,235.2 241,273.3 "/>
<path fill="none" d="M284.4,328.7c2.1-0.2,6.2-1,10.7-4.9c0.2-0.2,0.5-0.4,0.7-0.7v-53h-11.4V328.7z"/>
<path fill="none" d="M276.1,393h-1.7v5h1.7c1.1,0,2.3-0.5,2.3-2.4v-0.2C278.4,393.5,277.2,393,276.1,393z"/>
<polygon fill="none" points="315.6,400.5 318.5,400.5 317,393.5 "/>
<polygon fill="none" points="288.6,400.5 291.5,400.5 290,393.5 "/>
<polygon fill="none" points="298.5,267.4 312.7,267.4 353.2,273.3 311.7,235.2 308.8,235.2 "/>
<path fill="none" d="M284.8,359.2l25.2,0.1c-0.2-9-2.8-16-7.8-20.8c-6.3-6-14.6-7-17.7-7v27.1L284.8,359.2z"/>
<path fill="none" d="M298.5,270.2V320c5.7-7.6,11.3-22.1,11.5-49.9H298.5z"/>
<polygon fill="none" points="312.7,232.5 342.2,259.5 311.5,222.3 283,222.3 252.2,259.4 281.7,232.5 "/>
<path fill="none" d="M312.7,270.3c-0.2,34.5-8.7,49.2-15.9,55.6c-2,1.8-3.8,2.9-5.6,3.8c4,1,8.8,2.9,12.8,6.9
	c5.3,5,8.2,12.2,8.6,21.3l38.8-74.7l2.7-6.9L312.7,270.3z"/>
<polygon fill="none" points="298.5,258.5 306,235.2 298.5,235.2 "/>
<polygon fill="none" points="295.8,257.9 295.8,235.2 289.3,235.2 "/>
<path fill="#FFFFFF" d="M275.5,373.8l44.1,0l34.4-89.6l4.9-9.4l-2.2-2l-43.9-53.2h-31l-44,53.1l-2.3,2.1l4.6,8.4L275.5,373.8z
	 M240.1,276.2l41.5-6v83.4l-39.2-71.5L240.1,276.2z M286.4,235.2l9.3,32.2h-13.8h-0.2v0l-40.7,5.9l41.7-38.1H286.4z M311.7,235.2
	l41.5,38.1l-40.5-5.9h-14.2l10.3-32.2H311.7z M295.8,323.2c-0.2,0.2-0.5,0.4-0.7,0.7c-4.5,3.9-8.6,4.7-10.7,4.9v-58.6h11.4V323.2z
	 M298.5,270.2H310c-0.2,27.8-5.7,42.3-11.5,49.9V270.2z M298.5,258.5v-23.3h7.5L298.5,258.5z M295.8,257.9l-6.5-22.7h6.5V257.9z
	 M302.2,338.5c5,4.8,7.6,11.8,7.8,20.8l-25.2-0.1l-0.4-0.7v-27.1C287.6,331.5,295.9,332.5,302.2,338.5z M250.2,302l32.9,60l30.4,0.1
	l29.2-56.2l-25.1,65.3l-40.4,0 M351.5,283.1l-38.8,74.7c-0.4-9.1-3.3-16.3-8.6-21.3c-4-3.9-8.8-5.9-12.8-6.9
	c1.8-0.9,3.6-2.1,5.6-3.8c7.2-6.4,15.7-21.1,15.9-55.6l41.4,6L351.5,283.1z M283,222.3h28.5l30.7,37.2l-29.4-27h-31l-29.5,26.9
	L283,222.3z"/>
<path fill="#FFFFFF" d="M209,165.2h-0.1v264.1h176.2V165.2H209z M382.3,426.6H211.6V167.9h170.8V426.6z"/>
<g>
	<path fill="#FFFFFF" d="M294.9,198.6v-0.8c0-1.9-0.9-3.1-2.5-3.8c1.2-0.6,2.1-1.7,2.1-3.4v-0.9c0-2.9-2.5-4-4.9-4h-4.3v17.1h4.5
		C292.9,202.9,294.9,201.4,294.9,198.6z M288,188.5h1.6c1.2,0,2.3,0.6,2.3,2.1v0.2c0,1.5-1.1,2.1-2.3,2.1H288V188.5z M288,200.3
		v-4.9h1.7c1.5,0,2.4,0.8,2.4,2.3v0.3c0,1.6-1,2.3-2.4,2.3H288z"/>
	<path fill="#FFFFFF" d="M326.5,198.7h3.6l1,4.3h2.7l-3.8-17.1h-3.5l-3.8,17.1h2.7L326.5,198.7z M328.3,188.9l1.5,7h-2.9
		L328.3,188.9z"/>
	<path fill="#FFFFFF" d="M303.5,203.1c2.4,0,4.9-1.3,4.9-5.8v-11.5h-2.7v11.4c0,2.5-1,3.3-2.2,3.3c-1.3,0-2.2-0.8-2.2-3.3v-11.4
		h-2.7v11.5C298.6,201.9,301,203.1,303.5,203.1z"/>
	<polygon fill="#FFFFFF" points="319.7,200.3 315.2,200.3 315.2,185.8 312.5,185.8 312.5,202.9 319.7,202.9 	"/>
	<path fill="#FFFFFF" d="M274.4,198.7h3.6l1,4.3h2.7l-3.8-17.1h-3.4l-3.8,17.1h2.7L274.4,198.7z M274.7,196l1.5-7l1.5,7"/>
	<polygon fill="#FFFFFF" points="263.3,202.9 266,202.9 266,188.4 269.1,188.4 269.1,185.8 260.2,185.8 260.2,188.4 263.3,188.4 	
		"/>
</g>
<path fill="#FFFFFF" d="M315.3,390.3l-3.8,17.1h2.7l1-4.3h3.6l1,4.3h2.7l-3.8-17.1H315.3z M315.6,400.5l1.5-7l1.5,7H315.6z"/>
<path fill="#FFFFFF" d="M304,397.4c-1.1-0.2-2.6-0.5-2.7-2.3c0-1.5,0.9-2.3,2-2.3c1.1,0,2.1,0.9,2.1,2.9h2.6c0-4.2-2.4-5.5-4.7-5.5
	c-2.3,0-4.8,1.2-4.8,5.1c0,3.5,2.5,4.3,4.1,4.7c1.9,0.4,2.9,1,2.9,2.7c0,1.5-0.8,2.4-2.4,2.4c-1.2,0-2.4-0.8-2.4-2.9h-2.6
	c0,4.2,2.6,5.5,5,5.5c2.7,0,5.1-1.3,5.1-5.3C308.4,400,307.2,398.1,304,397.4z"/>
<path fill="#FFFFFF" d="M281.1,395.9V395c0-3.6-2.8-4.6-5.4-4.6h-4v17.1h2.7v-6.9h1.8l2.3,6.9h2.9l-2.7-7.8
	C280,399.1,281.1,398,281.1,395.9z M278.4,395.6c0,1.8-1.2,2.4-2.3,2.4h-1.7v-5h1.7c1.2,0,2.3,0.5,2.3,2.4V395.6z"/>
<path fill="#FFFFFF" d="M288.3,390.3l-3.8,17.1h2.7l1-4.3h3.6l1,4.3h2.7l-3.8-17.1H288.3z M288.6,400.5l1.5-7l1.5,7H288.6z"/>
</svg>
